# xmcd CD database file
#
# Track frame offsets:
#	300
#	13621
#	27135
#	40472
#	56594
#	69992
#	84804
#	95474
#	108622
#	122416
#	136400
#	150132
#	164233
#	176002
#	188753
#	202611
#	214347
#	225300
#	237015
#	249171
#	261914
#	274503
#	286388
#	299235
#	314896
#
# Disc length: 4362 seconds
#
# Revision: 0
# Processed by: cddbd v1.5.1PL0 Copyright (c) Steve Scherf et al.
# Submitted via: CDex 1.50
#
DISCID=60110619
DTITLE=L.Armstrong, F.Sinatra, B.Holiday - Le Meilleur du Jazz  -  disk 1
DYEAR=2005
DGENRE=Jazz
TTITLE0=Cow Cow Boogie
TTITLE1=All or nothing at all
TTITLE2=Summertime
TTITLE3=East St Louis Toodle-oo
TTITLE4=Maple leaf rag
TTITLE5=Willie the weeper
TTITLE6=I wish I were twins
TTITLE7=Sweetie Dear
TTITLE8=Tin Roof blues
TTITLE9=Jazz me blues
TTITLE10=Static Strut
TTITLE11=I found a new baby
TTITLE12=If you want to be my sugar papa
TTITLE13=Weather Bird
TTITLE14=Barrelhouse Boogie
TTITLE15=Honeysuckle Rose
TTITLE16=Sweet Georgia Brown
TTITLE17=Loveless Love
TTITLE18=How high the moon
TTITLE19=I like to riff
TTITLE20=Groovin' high
TTITLE21=Move
TTITLE22=Early Spring
TTITLE23=Bloomdido
TTITLE24=Swingin' the blues
EXTD=YEAR: 2005
EXTT0=
EXTT1=
EXTT2=
EXTT3=
EXTT4=
EXTT5=
EXTT6=
EXTT7=
EXTT8=
EXTT9=
EXTT10=
EXTT11=
EXTT12=
EXTT13=
EXTT14=
EXTT15=
EXTT16=
EXTT17=
EXTT18=
EXTT19=
EXTT20=
EXTT21=
EXTT22=
EXTT23=
EXTT24=
PLAYORDER=
